<svg xmlns="http://www.w3.org/2000/svg" version="1.1" viewBox="0 0 488 150.66" style="fill: rgb(0, 0, 0);">
 <g id="__id22_s5ijurg184">
  <g id="__id23_s5ijurg184"><path d="m55.367 92.879c1.813 2.258 2.707 5.668 2.949 8.631 0.567 7.01-4.66 12.2-6.023 18.74-0.992 4.78 0.855 10.55 4.742 13.63 1.246 0.99 3.031-0.77 1.766-1.77-1.727-1.37-2.891-3.33-3.641-5.37-2.387-6.48 2.426-12.08 4.586-17.81 2.141-5.68 1.223-13.043-2.609-17.817-1.012-1.258-2.77 0.524-1.77 1.766" style="fill: rgb(243, 205, 116);"></path></g>
  <g id="__id24_s5ijurg184"><path d="m78.637 34.312c-8.492-23.023-31.106-32.07-52.035-24.351-20.93 7.719-32.254 29.281-23.762 52.305 7.887 21.394 30.113 36.519 50.012 32.359 0.027 0.16 0.066 0.32 0.125 0.48 0.324 0.868 1.046 1.473 1.882 1.68-0.601 1.242-1.203 2.485-1.808 3.735-0.68 1.39 1 2.56 2.199 1.81-0.312 0.2-0.07 0.04 0.129-0.04 0.34-0.15 0.687-0.22 1.051-0.27 1.382-0.21 2.73 0.23 4.113-0.07 1.715-0.39 3.316-1.48 4.426-2.837 0.652-0.793 0.289-1.801-0.52-2.281-1.172-0.691-2.344-1.387-3.515-2.078 0.703-0.719 0.972-1.801 0.601-2.805-0.055-0.144-0.121-0.281-0.191-0.41 18.027-9.641 25.222-35.727 17.293-57.227" style="fill: rgb(243, 205, 116);"></path></g>
  <g id="__id25_s5ijurg184"><path d="m47.66 19.305c4.84 0.105 9.391 3.414 12.52 6.793 1.097 1.187 2.859-0.586 1.765-1.766-3.593-3.883-8.781-7.406-14.285-7.527-1.613-0.039-1.609 2.461 0 2.5" style="fill: rgb(93, 202, 209);"></path></g>
  <g id="__id26_s5ijurg184"><path d="m460.45 92.879c1.81 2.258 2.71 5.668 2.95 8.631 0.56 7.01-4.66 12.2-6.02 18.74-1 4.78 0.85 10.55 4.74 13.63 1.25 0.99 3.03-0.77 1.77-1.77-1.73-1.37-2.89-3.33-3.65-5.37-2.38-6.48 2.43-12.08 4.59-17.81 2.14-5.68 1.22-13.043-2.61-17.817-1.01-1.258-2.77 0.524-1.77 1.766" style="fill: rgb(243, 205, 116);"></path></g>
  <g id="__id27_s5ijurg184"><path d="m204.15 82.879c1.81 2.258 2.71 5.668 2.95 8.633 0.57 7.008-4.66 12.198-6.02 18.738-0.99 4.78 0.85 10.55 4.74 13.63 1.25 0.99 3.03-0.77 1.77-1.77-1.73-1.37-2.89-3.33-3.64-5.37-2.39-6.48 2.42-12.08 4.58-17.818 2.14-5.672 1.23-13.035-2.61-17.809-1.01-1.258-2.76 0.524-1.77 1.766" style="fill: rgb(243, 205, 116);"></path></g>
  <g id="__id28_s5ijurg184"><path d="m122.35 107.6c-4.03 5.02-4.35 11.86-2.61 17.81 1.74 5.94 6.24 10.24 4.85 16.89-0.49 2.37-2 4.79-3.9 6.3-1.27 1 0.51 2.76 1.76 1.77 3.89-3.08 5.74-8.85 4.74-13.64-1.29-6.19-5.64-10.95-6.03-17.44-0.2-3.28 0.96-7.43 2.96-9.92 1-1.25-0.76-3.03-1.77-1.77" style="fill: rgb(243, 205, 116);"></path></g>
  <g id="__id29_s5ijurg184"><path d="m285.53 107.6c-4.03 5.02-4.35 11.86-2.61 17.81 1.74 5.94 6.23 10.24 4.85 16.89-0.49 2.37-2 4.79-3.91 6.3-1.26 1 0.52 2.76 1.77 1.77 3.89-3.08 5.74-8.85 4.74-13.64-1.29-6.19-5.64-10.95-6.03-17.44-0.2-3.28 0.96-7.43 2.96-9.92 1-1.25-0.76-3.03-1.77-1.77" style="fill: rgb(243, 205, 116);"></path></g>
  <g id="__id30_s5ijurg184"><path d="m372.2 89.367c1.82 2.258 2.71 5.668 2.95 8.633 0.57 7.01-4.66 12.2-6.02 18.73-0.99 4.79 0.85 10.56 4.74 13.64 1.25 0.99 3.03-0.77 1.77-1.77-1.73-1.37-2.89-3.33-3.64-5.37-2.39-6.48 2.42-12.09 4.58-17.82 2.14-5.672 1.23-13.035-2.61-17.808-1.01-1.258-2.76 0.523-1.77 1.765" style="fill: rgb(243, 205, 116);"></path></g>
  <g id="__id31_s5ijurg184"><path d="m484.8 34.312c-8.49-23.023-31.1-32.07-52.03-24.351s-32.26 29.281-23.77 52.305c7.89 21.394 30.12 36.519 50.02 32.359 0.02 0.16 0.07 0.32 0.12 0.48 0.32 0.868 1.05 1.473 1.89 1.68-0.61 1.242-1.21 2.485-1.82 3.735-0.67 1.39 1.01 2.56 2.2 1.81-0.31 0.2-0.07 0.04 0.13-0.04 0.34-0.15 0.69-0.22 1.05-0.27 1.39-0.21 2.73 0.23 4.12-0.07 1.72-0.39 3.31-1.48 4.43-2.837 0.65-0.793 0.28-1.801-0.53-2.281-1.17-0.691-2.34-1.387-3.51-2.078 0.7-0.719 0.97-1.801 0.6-2.805-0.05-0.144-0.12-0.281-0.19-0.41 18.03-9.641 25.22-35.727 17.29-57.227" style="fill: rgb(243, 205, 116);"></path></g>
  <g id="__id32_s5ijurg184"><path d="m170.84 73.43c4.93-24.039-9.51-43.657-31.36-48.137-21.86-4.484-42.847 7.863-47.777 31.902-4.586 22.34 6.32 46.915 25.417 53.875-0.06 0.15-0.11 0.31-0.14 0.47-0.19 0.91 0.11 1.8 0.71 2.42-1.17 0.74-2.33 1.48-3.5 2.22-1.32 0.83-0.51 2.7 0.91 2.7-0.37 0-0.08 0 0.13 0.03 0.36 0.06 0.69 0.18 1.03 0.32 1.29 0.56 2.2 1.65 3.53 2.11 1.66 0.59 3.6 0.5 5.26-0.07 0.97-0.33 1.19-1.38 0.76-2.21-0.63-1.21-1.26-2.42-1.89-3.62 0.97-0.24 1.78-1.02 1.99-2.06 0.03-0.16 0.05-0.31 0.05-0.45 20.41 1.31 40.27-17.051 44.88-39.5" style="fill: rgb(93, 202, 209);"></path></g>
  <g id="__id33_s5ijurg184"><path d="m388.46 28.598c-10.53-22.164-33.87-29.133-54.02-19.551-20.15 9.578-29.47 32.074-18.94 54.238 9.8 20.594 33.3 33.649 52.74 27.703 0.04 0.16 0.1 0.317 0.17 0.469 0.39 0.836 1.17 1.375 2.02 1.5-0.48 1.293-0.97 2.586-1.46 3.879-0.55 1.457 1.23 2.465 2.35 1.609-0.29 0.227-0.06 0.047 0.13-0.054 0.32-0.172 0.66-0.27 1.02-0.36 1.36-0.332 2.74-0.015 4.09-0.445 1.67-0.535 3.17-1.77 4.15-3.223 0.58-0.847 0.13-1.816-0.73-2.218-1.22-0.586-2.45-1.172-3.68-1.758 0.63-0.778 0.8-1.879 0.34-2.848-0.06-0.137-0.14-0.266-0.23-0.387 17.09-11.234 21.89-37.859 12.05-58.554" style="fill: rgb(243, 205, 116);"></path></g>
  <g id="__id34_s5ijurg184"><path d="m242.37 37.863c-1.82-24.468-21.07-39.398-43.32-37.742-22.24 1.6524-39.07 19.266-37.25 43.734 1.7 22.743 18.89 43.403 39.17 44.887-0.02 0.16-0.02 0.324-0.01 0.496 0.07 0.922 0.6 1.703 1.34 2.133-0.92 1.027-1.84 2.055-2.76 3.086-1.04 1.156 0.25 2.742 1.61 2.352-0.35 0.101-0.08 0.015 0.14-0.008 0.36-0.043 0.72-0.012 1.08 0.035 1.39 0.18 2.56 0.976 3.97 1.059 1.76 0.109 3.6-0.504 5.04-1.504 0.85-0.582 0.77-1.649 0.13-2.332-0.94-0.989-1.87-1.981-2.81-2.969 0.87-0.496 1.43-1.461 1.35-2.531-0.01-0.153-0.03-0.301-0.07-0.446 19.99-4.301 34.09-27.394 32.39-50.25" style="fill: rgb(243, 205, 116);"></path></g>
  <g id="__id35_s5ijurg184"><path d="m334.8 72.211c4.71-24.082-9.91-43.563-31.8-47.844-21.89-4.277-42.77 8.262-47.48 32.348-4.38 22.379 6.75 46.845 25.92 53.635-0.06 0.15-0.11 0.31-0.14 0.47-0.18 0.91 0.12 1.8 0.73 2.41l-3.48 2.25c-1.31 0.84-0.48 2.72 0.93 2.7-0.37 0-0.08 0 0.14 0.03 0.36 0.05 0.69 0.18 1.03 0.31 1.29 0.54 2.21 1.62 3.55 2.08 1.67 0.56 3.6 0.46 5.26-0.12 0.97-0.34 1.18-1.39 0.74-2.22-0.64-1.2-1.29-2.4-1.93-3.6 0.98-0.25 1.77-1.04 1.98-2.09 0.03-0.15 0.04-0.3 0.04-0.45 20.42 1.13 40.12-17.417 44.51-39.909" style="fill: rgb(93, 202, 209);"></path></g>
  <g id="__id36_s5ijurg184"><path d="m453.82 19.305c4.84 0.105 9.39 3.414 12.52 6.793 1.1 1.187 2.86-0.586 1.77-1.766-3.59-3.883-8.78-7.406-14.29-7.527-1.61-0.039-1.6 2.461 0 2.5" style="fill: rgb(93, 202, 209);"></path></g>
  <g id="__id37_s5ijurg184"><path d="m152.47 44.355c4.06 2.637 6.17 7.891 7.03 12.407 0.31 1.582 2.71 0.91 2.41-0.664-0.99-5.192-3.57-10.907-8.18-13.903-1.35-0.883-2.61 1.285-1.26 2.16" style="fill: rgb(93, 202, 209);"></path></g>
  <g id="__id38_s5ijurg184"><path d="m356.14 16.449c4.85-0.324 9.66 2.453 13.12 5.559 1.19 1.074 2.97-0.688 1.76-1.77-3.92-3.523-9.38-6.656-14.88-6.289-1.59 0.11-1.6 2.61 0 2.5" style="fill: rgb(93, 202, 209);"></path></g>
  <g id="__id39_s5ijurg184"><path d="m216.74 14.906c4.61 1.422 8.11 5.895 10.16 10.004 0.72 1.442 2.88 0.176 2.16-1.262-2.35-4.71-6.42-9.539-11.66-11.152-1.54-0.476-2.2 1.938-0.66 2.41" style="fill: rgb(93, 202, 209);"></path></g>
  <g id="__id40_s5ijurg184"><path d="m316.15 43.305c4.08 2.601 6.25 7.828 7.16 12.336 0.32 1.582 2.73 0.91 2.41-0.664-1.04-5.18-3.67-10.879-8.31-13.829-1.36-0.871-2.61 1.293-1.26 2.157" style="fill: rgb(93, 202, 209);"></path></g>
 </g>
</svg>