<?xml version="1.0"?>
<svg xmlns="http://www.w3.org/2000/svg" height="512px" viewBox="-68 0 512 512" width="512px"><g><path d="m187.753906 257.382812c9.570313 0 18.484375-5.160156 23.257813-13.464843 2.066406-3.59375.828125-8.175781-2.761719-10.242188-3.589844-2.0625-8.175781-.828125-10.242188 2.765625-2.105468 3.664063-6.035156 5.941406-10.253906 5.941406-4.222656 0-8.152344-2.277343-10.257812-5.941406-2.0625-3.59375-6.648438-4.828125-10.238282-2.765625-3.59375 2.066407-4.828124 6.648438-2.765624 10.242188 4.773437 8.304687 13.6875 13.464843 23.261718 13.464843zm0 0" data-original="#000000" class="active-path" data-old_color="#000000" fill="#FFFFFF"/><path d="m267.640625 353.566406c13.285156-7.554687 25.960937-16.976562 37.71875-28.132812 3.003906-2.851563 3.128906-7.597656.277344-10.601563-2.851563-3.007812-7.597657-3.132812-10.605469-.277343-31.226562 29.632812-69.324219 45.949218-107.277344 45.949218-98.875 0-172.753906-102.863281-172.753906-194.839844 0-88.707031 71.039062-150.664062 172.753906-150.664062 101.710938 0 172.75 61.957031 172.75 150.667969 0 44.835937-17.1875 91.855469-47.15625 129.007812-2.601562 3.222657-2.097656 7.945313 1.125 10.546875 3.222656 2.597656 7.945313 2.09375 10.546875-1.128906 32.082031-39.769531 50.484375-90.226562 50.484375-138.425781 0-49.773438-19.191406-92.023438-55.5-122.1875-33.753906-28.039063-80.722656-43.480469-132.25-43.480469-51.53125 0-98.5 15.441406-132.25 43.480469-36.3125 30.164062-55.503906 72.414062-55.503906 122.1875 0 50.546875 19.898438 102.804687 54.59375 143.375 15.769531 18.4375 33.652344 33.390625 53.222656 44.546875-55.546875 29.441406-90.800781 87.382812-90.800781 150.910156 0 4.144531 3.359375 7.5 7.5 7.5h326.472656c4.144531 0 7.5-3.355469 7.5-7.5 0-63.640625-35.25-121.503906-90.847656-150.933594zm-235.445313 143.433594c2.816407-58.613281 38.476563-110.980469 92.488282-134.929688 20.394531 8.910157 41.554687 13.4375 63.070312 13.4375 21.339844 0 42.667969-4.644531 62.960938-13.476562 54.101562 23.941406 89.78125 76.242188 92.59375 134.96875zm0 0" data-original="#000000" class="active-path" data-old_color="#000000" fill="#FFFFFF"/><path d="m167.214844 197.476562c-2.730469-13.746093-10.542969-27.628906-22.007813-39.09375-14.4375-14.4375-32.898437-23.054687-49.386719-23.054687-10.621093 0-19.742187 3.503906-26.367187 10.132813-8.800781 8.800781-12.027344 21.816406-9.082031 36.65625 2.726562 13.746093 10.539062 27.628906 22.007812 39.09375 14.433594 14.433593 32.894532 23.054687 49.382813 23.054687 10.621093 0 19.742187-3.503906 26.367187-10.128906 8.800782-8.804688 12.027344-21.824219 9.085938-36.660157zm-19.691406 26.050782c-4.742188 4.742187-11.1875 5.734375-15.761719 5.734375-12.597657 0-27.09375-6.976563-38.777344-18.660157-18.285156-18.28125-24.203125-43.257812-12.925781-54.535156 4.742187-4.742187 11.1875-5.738281 15.761718-5.738281 12.597657 0 27.09375 6.976563 38.777344 18.660156 18.285156 18.285157 24.203125 43.261719 12.925782 54.539063zm0 0" data-original="#000000" class="active-path" data-old_color="#000000" fill="#FFFFFF"/><path d="m243.742188 244.265625c16.488281 0 34.949218-8.621094 49.382812-23.054687 11.464844-11.464844 19.28125-25.347657 22.007812-39.09375 2.945313-14.839844-.28125-27.855469-9.082031-36.660157-6.628906-6.625-15.746093-10.128906-26.371093-10.128906-16.484376 0-34.945313 8.617187-49.382813 23.054687-11.464844 11.464844-19.28125 25.347657-22.007813 39.09375-2.941406 14.835938.285157 27.855469 9.085938 36.660157 6.625 6.625 15.742188 10.128906 26.367188 10.128906zm-2.839844-75.277344c11.6875-11.683593 26.183594-18.660156 38.777344-18.660156 4.574218 0 11.023437.996094 15.761718 5.734375 11.28125 11.28125 5.363282 36.257812-12.921875 54.539062-11.683593 11.6875-26.179687 18.660157-38.777343 18.660157-4.574219 0-11.019532-.992188-15.761719-5.734375-11.277344-11.277344-5.359375-36.253906 12.921875-54.539063zm0 0" data-original="#000000" class="active-path" data-old_color="#000000" fill="#FFFFFF"/></g> </svg>
