<?xml version="1.0"?>
<svg xmlns="http://www.w3.org/2000/svg" id="Layer_1" height="512px" viewBox="0 0 64 64" width="512px" data-name="Layer 1" class=""><g><path d="m57.37 13a6.81 6.81 0 0 0 -12.06-4.36 28.6 28.6 0 0 0 -17.31-3.41 28 28 0 1 0 27.16 12.77 6.79 6.79 0 0 0 2.21-5zm-6.81-4.83a4.82 4.82 0 0 1 2.72 8.83 4.82 4.82 0 1 1 -2.69-8.81zm-43.82 32.67a.93.93 0 0 1 .35-.64c.73-.4 3.14.94 4.14.79 1.16-.19 2.08-1.38 2.5-3.05.39-1.32.59-1.64 1-1.67a1 1 0 0 0 .81-.5c.76-1.26.62-5 1.37-5.36 0 0 .31-.09 1.18.39 1.33.9 1.08 1.85.19 3.78a5.12 5.12 0 0 0 -.71 2.64c.6 2.09 2.49 3 4.46 4.85a3.83 3.83 0 0 1 .17 2.41c-.16 1.09-.39 2.75 1.51 3.63a1 1 0 0 0 1.07-.11c1.71-1.43 3-2 4-1.87 1.32.23 2.42 1.94 3.53 3.82a1 1 0 0 0 1 .49c2.32-.35 2.74-2.83 4-4.68a8.44 8.44 0 0 0 6.95 3.83c2 .22 3.15.35 4 3.34a26 26 0 0 1 -41.52-12zm43.14 10.57c-1.26-3.4-3.43-3.64-5.37-3.84-1.54 0-4-.89-6-3.52a2.38 2.38 0 0 0 -2-.25c-1.39.56-1.52 2.64-2.84 4.38-1.26-2.07-2.54-3.72-4.49-4.06-1.49-.25-3.1.32-5 1.8-.05-1.28.61-3.37-.37-4.87-.76-1.17-2.36-1.59-4.2-4.16a5.63 5.63 0 0 1 .55-1.48c.74-1.61 2-4.31-1-6.31a3.43 3.43 0 0 0 -3.16-.48c-1.41.83-1.4 3.16-2 5.76-1.76.58-1.88 2.83-2.92 4.58a7.73 7.73 0 0 0 -5-.5 26 26 0 0 1 20.34-31 4.08 4.08 0 0 0 -.34 3c.44 1.52 4.6 2.51 4.66 3.11 0 .25 0 1.22-2.72 4.36-.35.4-.9 1.35.54 1.65s2.44.81 2.75 1.46c.51 1-.39 2.86-1.26 4.63-1.11 2.27-2.38 4.83-1.29 7 .79 1.59 2.66 2.65 5.73 3.25 1.25.21 3.58 1.7 5.53 4.56a2.67 2.67 0 0 0 4.65-1.88c-.03-2.45.33-2.48 1.33-2.6 2.25-.19 4.31-.93 4.69-7.7.46 0 .8.3 1.36.84a3.37 3.37 0 0 0 2.56 1.26 4.28 4.28 0 0 0 2.59-1.38 25.85 25.85 0 0 1 -7.35 22.36zm6.86-24.75c-1.32 1.54-2 1.76-2.22 1.77s-.58-.26-1.05-.7c-.81-.78-2-1.94-4.08-1.12a1 1 0 0 0 -.63.89c-.23 6.32-1.65 6.43-2.9 6.54-2.07.17-3.19 1-3.15 4.65 0 .56-.73 1.09-1.12.54-2.08-3-4.38-4.8-6.68-5.24s-3.83-1.19-4.32-2.17c-.64-1.3.34-3.31 1.3-5.25 1.08-2.19 2.19-4.46 1.26-6.38a4.4 4.4 0 0 0 -2.58-2.1c1.82-2.24 2.47-3.78 2.14-5s-1.71-1.84-2.87-2.22c-.82-.28-1.66-.56-1.83-1-.1-.29-.1-1 .89-2.69a25.64 25.64 0 0 1 2.64-.18 25.93 25.93 0 0 1 12.73 3.34 6.83 6.83 0 0 0 6.29 9.47 6.76 6.76 0 0 0 2.94-.68 25.89 25.89 0 0 1 3.24 7.53z" data-original="#000000" class="active-path" data-old_color="#000000" fill="#FFFFFF"/><circle cx="54.14" cy="4" r="1" data-original="#000000" class="active-path" data-old_color="#000000" fill="#FFFFFF"/><circle cx="57.44" cy="6.2" r="1" data-original="#000000" class="active-path" data-old_color="#000000" fill="#FFFFFF"/><circle cx="59.46" cy="9.57" r="1" data-original="#000000" class="active-path" data-old_color="#000000" fill="#FFFFFF"/></g> </svg>
