<?xml version="1.0"?>
<svg xmlns="http://www.w3.org/2000/svg" xmlns:xlink="http://www.w3.org/1999/xlink" version="1.1" id="Capa_1" x="0px" y="0px" viewBox="0 0 492.816 492.816" style="enable-background:new 0 0 492.816 492.816;" xml:space="preserve" width="512px" height="512px" class=""><g><g>
	<g>
		<path d="M398.71,73.256C327.383,1.68,219.876-19.701,126.59,19.136c-2.125,0.605-3.357,2.818-2.752,4.942    c0.605,2.125,2.818,3.357,4.942,2.752c0.311-0.088,0.609-0.214,0.889-0.374c90.32-37.58,194.395-16.863,263.44,52.44    c75.089,75.245,75.089,197.075,0,272.32c-59.842,59.846-156.869,59.848-216.714,0.006c-0.002-0.002-0.004-0.004-0.006-0.006    c-47.47-47.601-47.47-124.639,0-172.24c37.706-37.743,98.87-37.773,136.613-0.067c0.022,0.022,0.045,0.045,0.067,0.067    c29.872,29.881,29.872,78.319,0,108.2c-23.608,23.558-61.832,23.558-85.44,0c-18.511-18.576-18.511-48.624,0-67.2    c1.568-1.556,1.579-4.088,0.023-5.657c-0.008-0.008-0.015-0.016-0.023-0.023c-1.56-1.551-4.08-1.551-5.64,0    c-21.683,21.681-21.684,56.834-0.003,78.517c0.001,0.001,0.002,0.002,0.003,0.003c26.72,26.682,70,26.682,96.72,0    c32.994-32.958,33.022-86.423,0.064-119.416c-0.021-0.021-0.043-0.043-0.064-0.064c-40.766-40.869-106.944-40.953-147.813-0.187    c-0.062,0.062-0.124,0.124-0.187,0.187c-50.643,50.708-50.643,132.852,0,183.56c62.974,62.928,165.026,62.927,228,0    C476.905,278.517,476.905,151.635,398.71,73.256z" data-original="#000000" class="active-path" data-old_color="#000000" fill="#FFFFFF"/>
	</g>
</g><g>
	<g>
		<path d="M116.71,27.896c-0.984-1.976-3.383-2.782-5.36-1.8c-3.72,1.84-7.44,4-11.08,5.84c-1.944,1.049-2.67,3.475-1.621,5.419    c0.708,1.313,2.089,2.123,3.581,2.101c0.687-0.002,1.362-0.181,1.96-0.52c3.52-1.96,7.12-4,10.72-5.68    C116.886,32.272,117.692,29.873,116.71,27.896z" data-original="#000000" class="active-path" data-old_color="#000000" fill="#FFFFFF"/>
	</g>
</g><g>
	<g>
		<path d="M80.19,49.376c-1.303-1.789-3.811-2.183-5.6-0.88l-0.12,0.04c-10.213,7.543-19.852,15.833-28.84,24.8    c-1.551,1.56-1.551,4.08,0,5.64c0.748,0.763,1.771,1.196,2.84,1.2c1.069-0.004,2.092-0.437,2.84-1.2    c8.713-8.696,18.073-16.719,28-24C81.1,53.672,81.494,51.165,80.19,49.376z" data-original="#000000" class="active-path" data-old_color="#000000" fill="#FFFFFF"/>
	</g>
</g><g>
	<g>
		<path d="M436.03,442.456c-1.261-1.809-3.748-2.256-5.56-1c-96.028,67.205-226.465,55.663-309.2-27.36    c-75.088-75.245-75.088-197.075,0-272.32c59.842-59.846,156.869-59.848,216.714-0.006c0.002,0.002,0.004,0.004,0.006,0.006    c47.47,47.601,47.47,124.639,0,172.24c-37.755,37.676-98.885,37.676-136.64,0c-29.718-29.867-29.718-78.133,0-108    c23.595-23.553,61.805-23.553,85.4,0c18.555,18.557,18.555,48.643,0,67.2c-1.027,1.956-0.274,4.374,1.682,5.401    c1.266,0.665,2.79,0.603,3.998-0.161c21.64-21.701,21.64-56.82,0-78.52c-26.733-26.686-70.027-26.686-96.76,0    c-32.952,33.011-32.952,86.469,0,119.48c40.894,40.809,107.106,40.809,148,0c50.599-50.726,50.599-132.834,0-183.56    c-63.02-62.817-164.98-62.817-228,0c-78.195,78.379-78.195,205.261,0,283.64c85.453,85.782,220.205,97.713,319.4,28.28    C436.721,446.52,437.138,444.21,436.03,442.456z" data-original="#000000" class="active-path" data-old_color="#000000" fill="#FFFFFF"/>
	</g>
</g><g>
	<g>
		<path d="M23.35,223.176c-2.175-0.362-4.233,1.106-4.6,3.28c-4.23,24.794-5.212,50.033-2.92,75.08c0.187,2.068,1.924,3.648,4,3.64    h0.36c2.198-0.211,3.809-2.162,3.6-4.36c-2.221-24.367-1.267-48.919,2.84-73.04C26.992,225.6,25.525,223.543,23.35,223.176z" data-original="#000000" class="active-path" data-old_color="#000000" fill="#FFFFFF"/>
	</g>
</g><g>
	<g>
		<path d="M34.677,356.598c-0.002-0.007-0.004-0.015-0.007-0.022c-3.126-10.311-5.65-20.796-7.56-31.4    c-0.387-2.209-2.491-3.687-4.7-3.3c-2.209,0.387-3.687,2.491-3.3,4.7c1.976,10.911,4.567,21.701,7.76,32.32    c0.582,1.671,2.193,2.761,3.96,2.68c0.384,0.061,0.776,0.061,1.16,0C34.107,360.943,35.31,358.714,34.677,356.598z" data-original="#000000" class="active-path" data-old_color="#000000" fill="#FFFFFF"/>
	</g>
</g><g>
	<g>
		<path d="M468.75,413.936c-1.556-1.568-4.088-1.579-5.657-0.023c-0.008,0.008-0.016,0.015-0.023,0.023    c-4.6,4.6-9.4,9.04-14.28,13.2c-1.679,1.436-1.876,3.961-0.44,5.64c1.436,1.679,3.961,1.876,5.64,0.44    c5.04-4.32,10-8.88,14.76-13.64C470.301,418.016,470.301,415.496,468.75,413.936z" data-original="#000000" class="active-path" data-old_color="#000000" fill="#FFFFFF"/>
	</g>
</g><g>
	<g>
		<path d="M414.83,127.856c-6.728-2.085-11.995-7.352-14.08-14.08c-0.543-1.733-2.186-2.883-4-2.8c-1.814-0.083-3.457,1.067-4,2.8    c-2.071,6.722-7.324,11.99-14.04,14.08c-1.749,0.528-2.918,2.174-2.84,4c-0.078,1.825,1.091,3.472,2.84,4    c6.714,2.07,11.97,7.326,14.04,14.04c0.528,1.749,2.174,2.918,4,2.84c1.825,0.078,3.472-1.091,4-2.84    c2.09-6.716,7.358-11.969,14.08-14.04c1.733-0.543,2.883-2.186,2.8-4C417.713,130.041,416.563,128.399,414.83,127.856z     M396.75,139.616c-2.052-2.972-4.628-5.548-7.6-7.6c2.924-2.057,5.446-4.633,7.44-7.6h0.16c2.03,2.991,4.609,5.57,7.6,7.6    C401.368,134.057,398.791,136.634,396.75,139.616z" data-original="#000000" class="active-path" data-old_color="#000000" fill="#FFFFFF"/>
	</g>
</g><g>
	<g>
		<path d="M479.704,53.449c-0.391-1.258-1.376-2.243-2.634-2.634c-9.27-2.834-16.526-10.09-19.36-19.36    c-0.543-1.733-2.186-2.883-4-2.8c-1.814-0.083-3.457,1.067-4,2.8c-2.859,9.255-10.105,16.501-19.36,19.36    c-2.11,0.655-3.289,2.897-2.634,5.006c0.391,1.258,1.376,2.243,2.634,2.634c9.466,2.739,16.93,10.038,19.88,19.44    c0.528,1.749,2.175,2.918,4,2.84c1.826,0.078,3.472-1.091,4-2.84c2.721-9.172,9.758-16.432,18.84-19.44    C479.18,57.801,480.359,55.559,479.704,53.449z M453.87,67.056c-3.079-5.019-7.301-9.24-12.32-12.32    c5.012-3.072,9.232-7.278,12.32-12.28l0.36-0.08c2.98,5,7.09,9.233,12,12.36C461.191,57.803,456.954,62.026,453.87,67.056z" data-original="#000000" class="active-path" data-old_color="#000000" fill="#FFFFFF"/>
	</g>
</g><g>
	<g>
		<path d="M43.95,117.536c-6.699-1.941-12.01-7.059-14.2-13.68c-0.619-2.121-2.839-3.339-4.96-2.72    c-1.312,0.383-2.337,1.408-2.72,2.72c-2.057,6.721-7.318,11.983-14.04,14.04c-1.733,0.543-2.883,2.186-2.8,4    c-0.083,1.814,1.067,3.457,2.8,4c6.701,1.962,12.009,7.091,14.2,13.72c0.619,2.121,2.839,3.339,4.96,2.72    c1.312-0.383,2.337-1.408,2.72-2.72c2.059-6.729,7.317-12.002,14.04-14.08c1.733-0.543,2.883-2.186,2.8-4    C46.833,119.721,45.683,118.079,43.95,117.536z M25.91,129.336h-0.16c-2.007-2.984-4.558-5.562-7.52-7.6    c2.982-2.041,5.559-4.618,7.6-7.6c2.052,2.972,4.628,5.548,7.6,7.6C30.477,123.785,27.928,126.361,25.91,129.336z" data-original="#000000" class="active-path" data-old_color="#000000" fill="#FFFFFF"/>
	</g>
</g><g>
	<g>
		<path d="M484.43,350.216c-9.918-3.038-17.682-10.802-20.72-20.72c-0.543-1.733-2.186-2.883-4-2.8c-1.814-0.083-3.457,1.067-4,2.8    c-3.051,9.911-10.809,17.669-20.72,20.72c-1.749,0.528-2.918,2.174-2.84,4c0.012,1.752,1.163,3.292,2.84,3.8    c9.969,2.918,17.856,10.566,21.08,20.44c0.528,1.749,2.174,2.918,4,2.84c1.825,0.078,3.472-1.091,4-2.84    c3.063-9.904,10.817-17.657,20.72-20.72c1.661-0.522,2.793-2.059,2.8-3.8C487.503,352.122,486.206,350.595,484.43,350.216z     M459.87,367.656c-3.321-5.602-7.998-10.279-13.6-13.6c5.593-3.332,10.268-8.007,13.6-13.6c3.36,5.572,8.028,10.24,13.6,13.6    C467.886,357.4,463.214,362.072,459.87,367.656z" data-original="#000000" class="active-path" data-old_color="#000000" fill="#FFFFFF"/>
	</g>
</g><g>
	<g>
		<path d="M129.11,330.456c-6.621-1.991-11.859-7.079-14.04-13.64c-0.528-1.749-2.175-2.918-4-2.84    c-1.752,0.012-3.292,1.163-3.8,2.84c-2.078,6.724-7.351,11.981-14.08,14.04c-1.733,0.543-2.883,2.186-2.8,4    c-0.083,1.814,1.067,3.457,2.8,4c6.735,2.073,12.007,7.345,14.08,14.08c0.522,1.661,2.059,2.793,3.8,2.8    c1.814,0.083,3.457-1.067,4-2.8c1.957-6.875,7.229-12.312,14.04-14.48c1.749-0.528,2.918-2.175,2.84-4    C132.028,332.63,130.859,330.984,129.11,330.456z M111.23,342.456l-0.16-0.16c-2.03-2.991-4.609-5.57-7.6-7.6    c2.982-2.041,5.559-4.618,7.6-7.6c2.052,2.972,4.628,5.548,7.6,7.6C115.731,336.8,113.209,339.431,111.23,342.456z" data-original="#000000" class="active-path" data-old_color="#000000" fill="#FFFFFF"/>
	</g>
</g><g>
	<g>
		<path d="M122.35,96.616c-10.995-3.398-19.602-12.005-23-23c-0.494-1.635-1.973-2.776-3.68-2.84c-1.826-0.078-3.472,1.091-4,2.84    c-3.385,11.002-11.998,19.615-23,23c-1.749,0.528-2.918,2.175-2.84,4c0.012,1.752,1.163,3.292,2.84,3.8    c11.015,3.387,19.632,12.019,23,23.04c0.619,2.121,2.839,3.339,4.96,2.72c1.312-0.383,2.337-1.408,2.72-2.72    c3.38-11.014,11.992-19.641,23-23.04c1.677-0.508,2.828-2.048,2.84-3.8C125.268,98.79,124.099,97.144,122.35,96.616z     M95.67,116.136c-3.771-6.517-9.193-11.926-15.72-15.68c6.53-3.768,11.952-9.19,15.72-15.72c3.768,6.53,9.19,11.952,15.72,15.72    C104.863,104.21,99.441,109.619,95.67,116.136z" data-original="#000000" class="active-path" data-old_color="#000000" fill="#FFFFFF"/>
	</g>
</g></g> </svg>
