<?xml version="1.0"?>
<svg xmlns="http://www.w3.org/2000/svg" xmlns:xlink="http://www.w3.org/1999/xlink" version="1.1" id="Capa_1" x="0px" y="0px" viewBox="0 0 391.96 391.96" style="enable-background:new 0 0 391.96 391.96;" xml:space="preserve" width="512px" height="512px" class=""><g><g>
	<g>
		<path d="M370.456,119.576c-10.752,0-19.456,8.704-19.456,19.456c0,10.752,8.704,19.456,19.456,19.456s19.456-8.704,19.456-19.456    C389.912,128.28,381.208,119.576,370.456,119.576z M370.456,148.248c-5.12,0-9.216-4.096-9.216-9.216    c0-5.12,4.096-9.216,9.216-9.216c5.12,0,9.216,4.096,9.216,9.216C379.672,144.152,375.576,148.248,370.456,148.248z" data-original="#000000" class="active-path" data-old_color="#000000" fill="#FFFFFF"/>
	</g>
</g><g>
	<g>
		<path d="M58.648,310.04c-10.752,0-19.456,8.704-19.456,19.456s8.704,19.456,19.456,19.456c10.752,0,19.456-8.704,19.456-19.456    S69.4,310.04,58.648,310.04z M58.648,338.712c-5.12,0-9.216-4.096-9.216-9.216s4.096-9.216,9.216-9.216    c5.12,0,9.216,4.096,9.216,9.216S63.768,338.712,58.648,338.712z" data-original="#000000" class="active-path" data-old_color="#000000" fill="#FFFFFF"/>
	</g>
</g><g>
	<g>
		<path d="M258.84,20.248c-10.752,0-19.456,8.704-19.456,19.456c0,10.752,9.216,19.456,19.456,19.456    c10.752,0,19.456-8.704,19.456-19.456C278.296,28.952,269.592,20.248,258.84,20.248z M258.84,48.92    c-5.12,0-9.216-4.096-9.216-9.216S254.232,31,258.84,31c5.12,0,9.216,4.096,9.216,9.216S263.96,48.92,258.84,48.92z" data-original="#000000" class="active-path" data-old_color="#000000" fill="#FFFFFF"/>
	</g>
</g><g>
	<g>
		<circle cx="94.488" cy="282.392" r="5.632" data-original="#000000" class="active-path" data-old_color="#000000" fill="#FFFFFF"/>
	</g>
</g><g>
	<g>
		<circle cx="364.824" cy="25.88" r="5.632" data-original="#000000" class="active-path" data-old_color="#000000" fill="#FFFFFF"/>
	</g>
</g><g>
	<g>
		<circle cx="33.048" cy="246.552" r="5.632" data-original="#000000" class="active-path" data-old_color="#000000" fill="#FFFFFF"/>
	</g>
</g><g>
	<g>
		<path d="M134.424,342.296c-8.704,0-16.384,6.656-16.384,15.36c0,4.096,1.536,8.192,4.608,11.264    c3.072,3.072,7.168,4.608,11.264,5.12h0.512c4.096,0,8.192-1.536,11.264-4.608c3.072-3.072,4.608-7.168,5.12-11.264    C150.296,349.976,143.128,342.296,134.424,342.296z M138.008,362.264c-1.024,1.024-2.56,1.536-4.096,1.536    s-3.072-0.512-4.096-1.536c-1.024-1.024-1.536-2.56-1.536-4.096c0-3.072,2.56-5.632,5.632-5.632c3.072,0,5.632,2.56,5.632,5.632    C139.544,359.704,139.032,361.24,138.008,362.264z" data-original="#000000" class="active-path" data-old_color="#000000" fill="#FFFFFF"/>
	</g>
</g><g>
	<g>
		<path d="M359.192,62.744c-3.072-3.072-7.168-5.12-11.264-5.12c-4.096,0-8.192,1.536-11.264,4.608    c-3.072,3.072-5.12,7.168-5.12,11.264s1.536,8.192,4.608,11.264c3.072,3.072,7.168,5.12,11.264,5.12    c9.216,0,16.384-7.168,16.384-15.872C363.8,69.912,362.264,65.816,359.192,62.744z M347.416,79.64    c-1.536,0-3.072-0.512-4.096-2.048c-1.024-1.024-1.536-2.56-1.536-4.096c0.512-1.536,1.024-2.56,2.048-4.096    c1.024-1.024,2.56-1.536,4.096-1.536s3.072,0.512,4.096,2.048c1.024,1.024,1.536,2.56,1.536,4.096    C353.56,77.08,350.488,79.64,347.416,79.64z" data-original="#000000" class="active-path" data-old_color="#000000" fill="#FFFFFF"/>
	</g>
</g><g>
	<g>
		<path d="M362.264,229.656L263.96,111.384c-2.048-2.048-5.12-2.56-7.168-0.512c-2.048,2.048-2.56,5.12-0.512,7.168l97.792,118.784    c14.848,18.432,22.016,41.472,19.968,65.024c-2.56,23.552-13.824,45.056-32.256,59.904c-37.888,31.232-94.208,25.6-124.928-12.288    L14.104,102.68c-2.048-2.048-5.12-2.56-7.168-0.512c-2.048,2.048-2.56,5.12-0.512,7.168l202.24,246.272    c19.456,24.064,48.128,36.352,76.8,36.352c22.016,0,44.544-7.168,62.976-22.528c20.48-16.896,33.28-40.448,35.84-67.072    C386.84,276.248,379.16,250.136,362.264,229.656z" data-original="#000000" class="active-path" data-old_color="#000000" fill="#FFFFFF"/>
	</g>
</g><g>
	<g>
		<path d="M333.592,239.896c-12.288-14.848-28.672-23.552-47.616-25.6c-18.944-2.048-36.864,3.584-51.712,15.872    c-29.696,24.576-34.304,69.12-9.728,99.328c13.824,16.896,34.304,25.6,54.784,25.6c15.872,0,31.744-5.12,44.544-15.872    c14.336-11.776,23.552-28.672,25.6-47.616C351.512,272.664,345.88,254.744,333.592,239.896z M338.712,290.584    c-1.536,15.872-9.216,30.208-21.504,40.448c-25.6,20.992-63.488,17.408-84.992-8.192c-10.24-12.288-14.848-28.16-13.312-44.032    c2.048-15.872,9.728-30.208,22.016-40.448c10.752-8.704,24.064-13.824,37.888-13.824c2.048,0,4.096,0,6.144,0.512    c15.872,1.536,30.208,9.216,40.448,21.504C335.64,258.84,340.248,274.712,338.712,290.584z" data-original="#000000" class="active-path" data-old_color="#000000" fill="#FFFFFF"/>
	</g>
</g><g>
	<g>
		<path d="M173.848,238.36L11.032,39.192c-2.048-2.048-5.12-2.56-7.168-0.512c-2.048,2.048-2.56,5.12-0.512,7.168L166.68,244.504    c1.024,1.536,2.048,2.048,3.584,2.048c1.024,0,2.048-0.512,3.072-1.024C175.384,243.48,175.896,240.408,173.848,238.36z" data-original="#000000" class="active-path" data-old_color="#000000" fill="#FFFFFF"/>
	</g>
</g><g>
	<g>
		<path d="M207.128,197.4l-89.6-109.568c-2.048-2.048-5.12-2.56-7.168-0.512c-2.048,2.048-2.56,5.12-0.512,7.168l89.6,109.056    c1.024,1.024,2.56,2.048,4.096,2.048c1.024,0,2.048-0.512,3.072-1.024C208.664,202.52,209.176,199.448,207.128,197.4z" data-original="#000000" class="active-path" data-old_color="#000000" fill="#FFFFFF"/>
	</g>
</g><g>
	<g>
		<path d="M262.424,173.336l-140.8-171.52c-2.048-2.048-5.12-2.56-7.168-0.512c-2.048,2.048-2.56,5.12-0.512,7.168l140.8,171.008    c1.024,1.024,2.56,2.048,4.096,2.048c1.024,0,2.048-0.512,3.072-1.024C263.96,178.456,264.472,175.384,262.424,173.336z" data-original="#000000" class="active-path" data-old_color="#000000" fill="#FFFFFF"/>
	</g>
</g></g> </svg>
