<?xml version="1.0"?>
<svg xmlns="http://www.w3.org/2000/svg" id="Layer_1" height="512px" viewBox="0 0 64 64" width="512px" data-name="Layer 1" class=""><g><path d="m32 59.44a25.8 25.8 0 0 0 13.92-4c.1.12.17.09.42.41 1 1.16 3.85.32 6.09-1.93 1-.95 3.51-4.37 1.92-6.09a3 3 0 0 1 -.4-.41 26 26 0 0 0 -16.26-39.32 1.85 1.85 0 0 1 0-.6c0-2-2.94-2.94-5.67-2.94s-5.67.92-5.67 2.94a2.1 2.1 0 0 1 0 .6 26 26 0 0 0 5.65 51.34zm19-7c-1.52 1.52-2.86 2-3.24 1.91-.05-.39.39-1.73 1.91-3.25s3-2 3.23-2c.1.34-.28 1.75-1.9 3.36zm-19-45.88c2.15 0 3.41.63 3.64.94-.23.31-1.49.94-3.64.94a6 6 0 0 1 -3.67-.89c.12-.28 1.39-.99 3.67-.99zm-6.2 3.71a9 9 0 0 1 -1.51 2.36 1 1 0 0 0 0 1.41 1 1 0 0 0 1.42 0 9.86 9.86 0 0 0 2.4-4.33 11 11 0 0 0 7.78 0 10.23 10.23 0 0 0 2.4 4.29.9.9 0 0 0 1.42 0 1 1 0 0 0 0-1.41 8.42 8.42 0 0 1 -1.52-2.36 24 24 0 0 1 14.58 35.25 8.47 8.47 0 0 1 -.6-2.77 1 1 0 0 0 -2 0 10.09 10.09 0 0 0 1.37 4.76 10.82 10.82 0 0 0 -5.54 5.53 10.19 10.19 0 0 0 -4.77-1.38 1 1 0 1 0 0 2 8.47 8.47 0 0 1 2.77.6 24 24 0 1 1 -18.2-43.95z" data-original="#000000" class="active-path" data-old_color="#000000" fill="#FFFFFF"/><path d="m13.51 41.07a20 20 0 0 1 4.34-21.76 1 1 0 0 0 -1.41-1.42 22 22 0 0 0 -4.78 23.94 1 1 0 0 0 1.3.55 1 1 0 0 0 .55-1.31z" data-original="#000000" class="active-path" data-old_color="#000000" fill="#FFFFFF"/><path d="m17.53 50a1 1 0 0 0 .66.25 1 1 0 0 0 .75-.35 1 1 0 0 0 -.09-1.41 20 20 0 0 1 -3.49-4 1 1 0 0 0 -1.36-.22 1 1 0 0 0 -.27 1.38 22.17 22.17 0 0 0 3.8 4.35z" data-original="#000000" class="active-path" data-old_color="#000000" fill="#FFFFFF"/><path d="m47 32.44a5 5 0 1 0 -5-5 5 5 0 0 0 5 5zm0-8a3 3 0 1 1 -3 3 3 3 0 0 1 3-3z" data-original="#000000" class="active-path" data-old_color="#000000" fill="#FFFFFF"/><path d="m27 47.94a4.5 4.5 0 1 0 4.5-4.5 4.5 4.5 0 0 0 -4.5 4.5zm7 0a2.5 2.5 0 1 1 -2.5-2.5 2.5 2.5 0 0 1 2.5 2.5z" data-original="#000000" class="active-path" data-old_color="#000000" fill="#FFFFFF"/><path d="m29.5 32.44a3.5 3.5 0 1 0 -3.5-3.5 3.5 3.5 0 0 0 3.5 3.5zm0-5a1.5 1.5 0 1 1 -1.5 1.5 1.5 1.5 0 0 1 1.5-1.5z" data-original="#000000" class="active-path" data-old_color="#000000" fill="#FFFFFF"/><path d="m53 13a4 4 0 1 1 4-4 4 4 0 0 1 -4 4zm0-6a2 2 0 1 0 2 2 2 2 0 0 0 -2-2z" data-original="#000000" class="active-path" data-old_color="#000000" fill="#FFFFFF"/><path d="m10 60.94a4 4 0 1 1 4-4 4 4 0 0 1 -4 4zm0-6a2 2 0 1 0 2 2 2 2 0 0 0 -2-2z" data-original="#000000" class="active-path" data-old_color="#000000" fill="#FFFFFF"/></g> </svg>
