<?xml version="1.0"?>
<svg xmlns="http://www.w3.org/2000/svg" height="512px" viewBox="-26 -26 852.50075 852" width="512px" class=""><g><path d="m693.34375 129.003906c-4.351562-4.78125-11.761719-5.125-16.535156-.761718-4.78125 4.351562-5.125 11.761718-.761719 16.535156 21.761719 23.863281 40.160156 50.214844 54.929687 78.34375l-56.101562 56.105468c-13.007812 13.007813-20.171875 30.300782-20.171875 48.691407 0 18.382812 7.164063 35.675781 20.171875 48.683593 10.542969 10.542969 16.355469 24.570313 16.359375 39.496094 0 14.921875-5.816406 28.953125-16.378906 39.515625-10.546875 10.554688-24.574219 16.363281-39.488281 16.363281-14.929688-.003906-28.960938-5.824218-39.511719-16.363281-26.839844-26.851562-70.519531-26.839843-97.371094 0l-59.585937 59.589844c-10.554688 10.550781-24.589844 16.363281-39.503907 16.378906-14.9375-.015625-28.976562-5.828125-39.523437-16.378906-21.78125-21.78125-21.777344-57.226563.011718-79.011719l82.347657-82.34375c11.226562-11.230468 17.40625-26.164062 17.40625-42.050781 0-15.878906-6.183594-30.804687-17.417969-42.042969-11.230469-11.234375-26.167969-17.421875-42.046875-17.421875h-.007813c-15.878906 0-30.804687 6.183594-42.039062 17.40625l-11.113281 11.113281-12.941407-12.925781c-6.707031-6.710937-10.394531-15.625-10.394531-25.113281 0-9.480469 3.6875-18.394531 10.394531-25.101562l43.976563-43.972657c5.707031-5.710937 13.308594-8.859375 21.378906-8.859375 8.078125 0 15.667969 3.148438 21.382813 8.859375 12.84375 12.84375 29.910156 19.914063 48.066406 19.914063 18.160156 0 35.234375-7.074219 48.070312-19.914063 14.828126-14.828125 22.992188-34.539062 22.992188-55.515625 0-20.976562-8.164062-40.6875-22.988281-55.511718l-30.191407-30.191407c56.246094 13.667969 108.964844 40.183594 153.632813 77.941407 4.949219 4.175781 12.332031 3.554687 16.503906-1.378907 4.175781-4.9375 3.554688-12.328125-1.386719-16.5-71.855468-60.75-163.285156-94.136719-257.667968-94.136719-.632813 0-1.289063 0-1.925782.011719-95.128906.453125-187.058593 34.839844-258.851562 96.808594-4.898438 4.226563-5.441406 11.613281-1.214844 16.511719 2.316406 2.683594 5.585938 4.058594 8.871094 4.058594 2.707031 0 5.425781-.9375 7.640625-2.84375 29.179687-25.191407 61.90625-45.527344 96.882813-60.550782 20.882812 46.757813 10.949218 102.769532-25.757813 139.46875-16.394531 16.40625-25.421875 38.210938-25.421875 61.402344s9.027344 44.996094 25.421875 61.398438c16.40625 16.394531 38.210937 25.425781 61.398437 25.425781 23.191407 0 45-9.03125 61.398438-25.425781l28.40625-28.410157c6.804688-6.804687 15.851562-10.550781 25.476562-10.550781h.007813c9.628906.003906 18.679687 3.753906 25.488281 10.5625 6.816406 6.8125 10.570313 15.859375 10.570313 25.484375 0 9.640625-3.75 18.691406-10.554688 25.492187l-82.347656 82.347657c-30.914063 30.921875-30.921875 81.21875-.011719 112.125 14.96875 14.972656 34.875 23.21875 56.078125 23.238281 21.183594-.019531 41.089844-8.265625 56.0625-23.238281l59.589844-59.585938c17.710937-17.714843 46.539063-17.710937 64.261719 0 14.957031 14.960938 34.859375 23.210938 56.054687 23.222657 21.171875 0 41.078125-8.25 56.054688-23.222657 14.984375-14.980469 23.238281-34.890625 23.238281-56.078125-.019531-21.179687-8.265625-41.082031-23.226562-56.046875-8.582032-8.585937-13.3125-19.996093-13.3125-32.125 0-12.136719 4.730468-23.554687 13.3125-32.136719l50.351562-50.351562c20.644531 46.511719 31.777344 97.140625 32.265625 149.023438.871094 92.546874-32.121094 181.742187-92.914063 251.15625-4.257812 4.867187-3.769531 12.257812 1.097657 16.519531 2.21875 1.941406 4.964843 2.894531 7.707031 2.894531 3.253906 0 6.5-1.347656 8.8125-3.992188 64.582031-73.746093 99.636719-168.5 98.710938-266.796874-.933594-98.445313-37.902344-192.640626-104.117188-265.238282zm-408.460938 187.71875c-16.9375 0-32.859374-6.597656-44.835937-18.574218-11.980469-11.976563-18.570313-27.902344-18.570313-44.839844 0-16.941406 6.59375-32.863282 18.570313-44.839844 43.3125-43.316406 55.183594-109.265625 30.972656-164.582031 39.804688-14.234375 82.050781-21.8125 125.003907-22.015625.613281 0 1.207031-.011719 1.816406-.011719 16.210937 0 32.332031 1.066406 48.269531 3.125l54.285156 54.28125c10.402344 10.410156 16.132813 24.246094 16.132813 38.960937 0 14.71875-5.730469 28.550782-16.132813 38.960938-8.421875 8.417969-19.613281 13.054688-31.515625 13.054688s-23.085937-4.636719-31.511718-13.054688c-10.128907-10.136719-23.609376-15.714844-37.933594-15.714844-14.339844 0-27.804688 5.578125-37.941406 15.714844l-43.976563 43.976562c-11.128906 11.125-17.253906 25.917969-17.253906 41.65625 0 15.738282 6.125 30.539063 17.261719 41.664063l12.933593 12.925781-.738281.738282c-11.972656 11.976562-27.894531 18.574218-44.835938 18.574218zm0 0" data-original="#000000" class="active-path" data-old_color="#000000" fill="#FFFFFF"/><path d="m646.195312 680.636719c-71.671874 63.117187-163.886718 96.28125-259.640624 93.441406-26.589844-.789063-52.746094-4.363281-78.101563-10.539063l22.34375-22.347656c10.523437-10.527344 16.175781-24.515625 15.914063-39.410156-.257813-14.886719-6.414063-28.6875-17.332032-38.863281-21.523437-20.023438-54.992187-19.097657-76.1875 2.101562-5.367187 5.371094-12.515625 8.328125-20.121094 8.328125-7.59375 0-14.742187-2.957031-20.117187-8.328125-20.203125-20.207031-31.324219-47.070312-31.324219-75.648437.007813-28.589844 11.140625-55.460938 31.339844-75.664063l3.738281-3.734375c20.851563-20.855468 21.785157-55.03125 2.078125-76.1875-10.15625-10.910156-23.941406-17.070312-38.820312-17.339844-14.886719-.253906-28.898438 5.390626-39.429688 15.921876l-95.730468 95.730468c-46.546876-126.652344-23.035157-273.714844 72.285156-380.417968 4.304687-4.824219 3.890625-12.21875-.929688-16.53125-4.824218-4.300782-12.230468-3.886719-16.53125.933593-140.992187 157.824219-134.113281 398.773438 15.664063 548.546875 72.308593 72.3125 168.394531 113.8125 270.5625 116.855469 4.039062.121094 8.074219.179687 12.109375.179687 97.355468 0 190.589844-35.0625 263.710937-99.453124 4.851563-4.277344 5.320313-11.671876 1.046875-16.527344-4.265625-4.847656-11.671875-5.320313-16.527344-1.046875zm-591.8125-129 102.714844-102.714844c5.992188-5.992187 14.027344-9.21875 22.441406-9.0625 8.472657.15625 16.316407 3.660156 22.113282 9.886719 11.21875 12.035156 10.542968 31.625-1.503906 43.671875l-3.730469 3.734375c-24.621094 24.625-38.195313 57.375-38.203125 92.21875 0 34.832031 13.558594 67.578125 38.1875 92.207031 9.792968 9.789063 22.820312 15.183594 36.675781 15.183594 13.851563 0 26.875-5.394531 36.671875-15.183594 12.042969-12.046875 31.632812-12.722656 43.675781-1.527344 6.222657 5.800781 9.722657 13.664063 9.878907 22.140625.148437 8.484375-3.074219 16.449219-9.0625 22.4375l-31.628907 31.636719c-56.34375-18.078125-107.976562-49.40625-150.761719-92.191406-33.390624-33.390625-59.222656-71.605469-77.46875-112.4375zm0 0" data-original="#000000" class="active-path" data-old_color="#000000" fill="#FFFFFF"/><path d="m597.71875 602.703125c9.859375 0 19.128906-3.84375 26.101562-10.820313 6.976563-6.972656 10.8125-16.242187 10.8125-26.101562 0-9.863281-3.835937-19.132812-10.8125-26.105469l-24.050781-24.058593c-6.972656-6.96875-16.246093-10.8125-26.109375-10.8125-9.859375 0-19.132812 3.84375-26.105468 10.8125-6.972657 6.972656-10.8125 16.242187-10.8125 26.109374 0 9.859376 3.839843 19.128907 10.8125 26.105469l24.050781 24.050781c6.976562 6.976563 16.246093 10.820313 26.113281 10.820313zm-37.558594-60.976563c0-3.609374 1.398438-7 3.953125-9.550781 2.546875-2.550781 5.9375-3.953125 9.542969-3.953125 3.609375 0 7 1.402344 9.550781 3.953125l24.054688 24.050781c2.554687 2.554688 3.957031 5.945313 3.957031 9.554688 0 3.605469-1.402344 6.996094-3.957031 9.550781-2.550781 2.546875-5.941407 3.953125-9.550781 3.953125-3.601563 0-6.992188-1.40625-9.546876-3.953125l-24.050781-24.058593c-2.554687-2.550782-3.953125-5.941407-3.953125-9.546876zm0 0" data-original="#000000" class="active-path" data-old_color="#000000" fill="#FFFFFF"/><path d="m80.167969 350.214844c-14.394531 14.398437-14.394531 37.816406 0 52.214844 7.203125 7.203124 16.65625 10.796874 26.113281 10.796874 9.449219 0 18.90625-3.59375 26.101562-10.796874l24.054688-24.058594c6.976562-6.964844 10.808594-16.242188 10.808594-26.101563s-3.832032-19.132812-10.808594-26.101562c-6.976562-6.976563-16.242188-10.820313-26.105469-10.820313-9.867187 0-19.132812 3.84375-26.109375 10.820313zm50.164062-11.441406c3.460938 0 6.914063 1.316406 9.542969 3.949218 2.558594 2.546875 3.957031 5.9375 3.957031 9.546875 0 3.605469-1.398437 6.996094-3.957031 9.550781l-24.046875 24.054688c-2.554687 2.546875-5.945313 3.953125-9.546875 3.953125-3.609375 0-7-1.40625-9.550781-3.953125-5.269531-5.269531-5.269531-13.835938 0-19.097656l24.054687-24.054688c2.628906-2.632812 6.085938-3.949218 9.546875-3.949218zm0 0" data-original="#000000" class="active-path" data-old_color="#000000" fill="#FFFFFF"/><path d="m642.953125 400c-6.46875 0-11.640625 5.246094-11.640625 11.710938 0 6.460937 5.3125 11.707031 11.78125 11.707031s11.707031-5.246094 11.707031-11.707031c0-6.464844-5.238281-11.710938-11.707031-11.710938zm0 0" data-original="#000000" class="active-path" data-old_color="#000000" fill="#FFFFFF"/><path d="m605.488281 400c-6.464843 0-11.636719 5.246094-11.636719 11.710938 0 6.460937 5.3125 11.707031 11.78125 11.707031 6.460938 0 11.707032-5.246094 11.707032-11.707031 0-6.464844-5.246094-11.710938-11.707032-11.710938zm0 0" data-original="#000000" class="active-path" data-old_color="#000000" fill="#FFFFFF"/><path d="m442.21875 121.226562c6.460938 0 11.707031-5.242187 11.707031-11.707031 0-6.464843-5.246093-11.707031-11.707031-11.707031h-.148438c-6.460937 0-11.632812 5.242188-11.632812 11.707031 0 6.464844 5.3125 11.707031 11.78125 11.707031zm0 0" data-original="#000000" class="active-path" data-old_color="#000000" fill="#FFFFFF"/><path d="m411.917969 98.832031h.070312c6.464844-.035156 11.671875-5.300781 11.640625-11.777343-.03125-6.441407-5.269531-11.636719-11.703125-11.636719-.027343 0-.046875 0-.070312 0h-.136719c-6.472656.027343-11.609375 5.304687-11.574219 11.769531.027344 6.445312 5.335938 11.644531 11.773438 11.644531zm0 0" data-original="#000000" class="active-path" data-old_color="#000000" fill="#FFFFFF"/><path d="m335.085938 83.511719c6.46875 0 11.707031-5.246094 11.707031-11.710938 0-6.464843-5.238281-11.707031-11.707031-11.707031h-.140626c-6.46875 0-11.636718 5.242188-11.636718 11.707031 0 6.464844 5.304687 11.710938 11.777344 11.710938zm0 0" data-original="#000000" class="active-path" data-old_color="#000000" fill="#FFFFFF"/><path d="m133.117188 542.046875c-.019532 0-.046876 0-.066407 0h-.144531c-6.464844.03125-11.609375 5.300781-11.570312 11.765625.035156 6.449219 5.339843 11.648438 11.78125 11.648438h.058593c6.472657-.039063 11.679688-5.308594 11.648438-11.777344-.039063-6.4375-5.269531-11.636719-11.707031-11.636719zm0 0" data-original="#000000" class="active-path" data-old_color="#000000" fill="#FFFFFF"/><path d="m516.210938 215.679688c-9.855469 0-19.136719 3.839843-26.101563 10.808593-6.976563 6.976563-10.820313 16.25-10.820313 26.113281 0 9.859376 3.84375 19.132813 10.8125 26.101563l11.96875 11.972656c6.976563 6.976563 16.246094 10.808594 26.113282 10.808594 9.859375 0 19.125-3.832031 26.101562-10.808594 6.976563-6.976562 10.816406-16.246093 10.816406-26.109375 0-9.863281-3.839843-19.128906-10.816406-26.105468l-11.96875-11.972657c-6.972656-6.96875-16.246094-10.808593-26.105468-10.808593zm21.519531 58.441406c-2.558594 2.542968-5.949219 3.949218-9.546875 3.949218-3.609375 0-7-1.40625-9.550782-3.949218l-11.972656-11.972656c-2.546875-2.546876-3.957031-5.9375-3.957031-9.546876 0-3.609374 1.410156-7 3.957031-9.550781 2.550782-2.546875 5.941406-3.957031 9.550782-3.957031 3.605468 0 6.996093 1.410156 9.546874 3.957031l11.972657 11.972657c2.550781 2.542968 3.949219 5.933593 3.949219 9.542968 0 3.605469-1.398438 6.996094-3.949219 9.554688zm0 0" data-original="#000000" class="active-path" data-old_color="#000000" fill="#FFFFFF"/></g> </svg>
