<?xml version="1.0"?>
<svg xmlns="http://www.w3.org/2000/svg" height="512px" viewBox="0 -35 512 512" width="512px" class=""><g><path d="m504.507812 181.101562c-4.140624 0-7.496093 3.355469-7.496093 7.496094 0 35.753906-8.699219 71.285156-25.160157 102.75-15.933593 30.464844-39.128906 57.230469-67.074218 77.40625-3.355469 2.425782-4.113282 7.109375-1.691406 10.464844 1.46875 2.027344 3.757812 3.105469 6.082031 3.105469 1.519531 0 3.054687-.460938 4.382812-1.417969 29.820313-21.53125 54.574219-50.097656 71.582031-82.609375 17.578126-33.601563 26.867188-71.535156 26.867188-109.699219 0-4.140625-3.355469-7.496094-7.492188-7.496094zm0 0" data-original="#000000" class="active-path" data-old_color="#000000" fill="#FFFFFF"/><path d="m375.875 386.4375c-31.460938 16.089844-65.46875 24.25-101.066406 24.25-2.652344 0-5.3125-.066406-7.96875-.183594-2.257813-12.566406-13.269532-22.132812-26.476563-22.132812-9.664062 0-18.144531 5.117187-22.894531 12.78125-32.9375-11.351563-62.398438-32.714844-83.496094-60.683594-23.179687-30.726562-35.429687-67.363281-35.429687-105.953125 0-76.890625 62.585937-139.441406 139.511719-139.441406 4.21875 0 8.433593.265625 12.613281.738281.742187 14.175781 12.507812 25.476562 26.867187 25.476562 7.890625 0 14.996094-3.410156 19.921875-8.835937 31.441407 20.167969 50.710938 55.070313 50.710938 92.675781 0 47.71875-38.847657 86.542969-86.59375 86.542969-37.367188 0-67.769531-30.386719-67.769531-67.738281 0-29.050782 23.648437-52.6875 52.71875-52.6875 22.429687 0 40.675781 18.234375 40.675781 40.652344 0 4.140624 3.355469 7.496093 7.496093 7.496093 4.140626 0 7.492188-3.355469 7.492188-7.496093 0-30.679688-24.96875-55.640626-55.664062-55.640626-37.332032 0-67.707032 30.359376-67.707032 67.679688 0 45.613281 37.125 82.722656 82.761719 82.722656 56.011719 0 101.578125-45.546875 101.578125-101.53125 0-43.3125-22.503906-83.464844-59.097656-106.21875.25-1.472656.386718-2.976562.386718-4.515625 0-14.832031-12.070312-26.898437-26.90625-26.898437-10.011718 0-18.757812 5.496094-23.390624 13.625-5.320313-.683594-10.710938-1.03125-16.089844-1.03125-85.195313 0-154.503906 69.273437-154.503906 154.429687 0 41.875 13.296874 81.632813 38.453124 114.980469 23.066407 30.578125 55.363282 53.878906 91.457032 66.117188.183594 14.675781 12.175781 26.554687 26.898437 26.554687 11.242188 0 20.890625-6.929687 24.910157-16.738281 3.175781.15625 6.367187.246094 9.535156.246094 37.996094 0 74.296875-8.710938 107.890625-25.890626 3.683593-1.886718 5.144531-6.398437 3.261719-10.085937-1.886719-3.6875-6.402344-5.144531-10.085938-3.265625zm-98.335938-303.960938c6.570313 0 11.921876 5.34375 11.921876 11.914063 0 6.566406-5.351563 11.910156-11.921876 11.910156-6.574218 0-11.921874-5.34375-11.921874-11.910156 0-6.570313 5.347656-11.914063 11.921874-11.914063zm-37.175781 344.703126c-6.574219 0-11.921875-5.339844-11.921875-11.910157 0-6.566406 5.347656-11.910156 11.921875-11.910156s11.921875 5.34375 11.921875 11.910156c0 6.570313-5.351562 11.910157-11.921875 11.910157zm0 0" data-original="#000000" class="active-path" data-old_color="#000000" fill="#FFFFFF"/><path d="m256 241.992188c14.835938 0 26.90625-12.066407 26.90625-26.898438s-12.070312-26.898438-26.90625-26.898438-26.90625 12.066407-26.90625 26.898438 12.070312 26.898438 26.90625 26.898438zm0-38.808594c6.574219 0 11.921875 5.34375 11.921875 11.910156 0 6.570312-5.347656 11.914062-11.921875 11.914062s-11.921875-5.34375-11.921875-11.914062c0-6.566406 5.347656-11.910156 11.921875-11.910156zm0 0" data-original="#000000" class="active-path" data-old_color="#000000" fill="#FFFFFF"/><path d="m33.980469 165.472656c14.839843 0 26.910156-12.070312 26.910156-26.902344 0-7.867187-3.398437-14.957031-8.800781-19.878906 19.246094-28.886718 45.171875-53.085937 75.355468-70.257812 33.273438-18.929688 71.226563-28.933594 109.746094-28.933594 97.195313 0 176.265625 79.03125 176.265625 176.175781 0 13.671875-1.96875 27.113281-5.84375 40.054688-.886719-.089844-1.785156-.136719-2.695312-.136719-14.835938 0-26.90625 12.066406-26.90625 26.898438 0 6.835937 2.566406 13.082031 6.785156 17.832031-26.351563 34.425781-67.292969 54.792969-110.855469 54.792969-60.714844 0-110.109375-49.371094-110.109375-110.054688 0-47.722656 38.84375-86.546875 86.589844-86.546875 37.371094 0 67.773437 30.386719 67.773437 67.738281 0 29.054688-23.648437 52.691406-52.71875 52.691406-22.429687 0-40.679687-18.238281-40.679687-40.65625 0-4.136718-3.355469-7.492187-7.492187-7.492187-4.140626 0-7.496094 3.355469-7.496094 7.492187 0 30.679688 24.972656 55.640626 55.664062 55.640626 37.335938 0 67.707032-30.359376 67.707032-67.675782 0-45.613281-37.125-82.726562-82.757813-82.726562-56.011719 0-101.578125 45.546875-101.578125 101.53125 0 68.949218 56.117188 125.042968 125.097656 125.042968 48.695313 0 94.4375-22.980468 123.582032-61.753906 2.347656.671875 4.828124 1.039063 7.394531 1.039063 14.835937 0 26.90625-12.066407 26.90625-26.898438 0-8.554687-4.019531-16.183593-10.265625-21.113281 4.566406-14.746094 6.882812-30.09375 6.882812-45.703125 0-105.40625-85.796875-191.160156-191.25-191.160156-41.117187 0-81.628906 10.679687-117.15625 30.890625-32.796875 18.65625-60.863281 45.09375-81.511718 76.660156-1.480469-.253906-2.996094-.390625-4.542969-.390625-14.835938 0-26.910157 12.066406-26.910157 26.894531 0 7.546875 3.132813 14.375 8.15625 19.265625-10.105468 26.734375-15.226562 54.882813-15.226562 83.761719 0 4.136719 3.355469 7.492188 7.492188 7.492188 4.140624 0 7.496093-3.355469 7.496093-7.492188 0-26.417969 4.582031-52.167969 13.605469-76.664062 1.742188.355468 3.542969.542968 5.386719.542968zm370.941406 108.929688c-6.574219 0-11.921875-5.339844-11.921875-11.910156 0-6.566407 5.347656-11.910157 11.921875-11.910157 6.570313 0 11.917969 5.34375 11.917969 11.910157 0 6.570312-5.347656 11.910156-11.917969 11.910156zm-370.941406-147.742188c6.574219 0 11.921875 5.34375 11.921875 11.910156 0 6.570313-5.347656 11.914063-11.921875 11.914063-6.570313 0-11.917969-5.34375-11.917969-11.914063 0-6.566406 5.347656-11.910156 11.917969-11.910156zm0 0" data-original="#000000" class="active-path" data-old_color="#000000" fill="#FFFFFF"/><path d="m414.296875 44.097656c11.925781 0 21.628906 9.695313 21.628906 21.613282 0 4.136718 3.351563 7.492187 7.492188 7.492187s7.492187-3.355469 7.492187-7.492187c0-11.917969 9.703125-21.613282 21.628906-21.613282 4.140626 0 7.492188-3.355468 7.492188-7.496094 0-4.136718-3.351562-7.492187-7.492188-7.492187-11.925781 0-21.628906-9.699219-21.628906-21.617187 0-4.136719-3.351562-7.492188-7.492187-7.492188s-7.492188 3.355469-7.492188 7.492188c0 11.917968-9.703125 21.617187-21.628906 21.617187-4.140625 0-7.496094 3.355469-7.496094 7.492187 0 4.140626 3.355469 7.496094 7.496094 7.496094zm29.121094-14.441406c1.996093 2.613281 4.332031 4.953125 6.945312 6.945312-2.613281 1.996094-4.949219 4.332032-6.945312 6.945313-1.992188-2.613281-4.332031-4.949219-6.945313-6.945313 2.613282-1.992187 4.953125-4.332031 6.945313-6.945312zm0 0" data-original="#000000" class="active-path" data-old_color="#000000" fill="#FFFFFF"/><path d="m90.226562 353.066406c-11.925781 0-21.625-9.695312-21.625-21.613281 0-4.136719-3.355468-7.492187-7.496093-7.492187-4.136719 0-7.492188 3.355468-7.492188 7.492187 0 11.917969-9.703125 21.613281-21.628906 21.613281-4.136719 0-7.492187 3.355469-7.492187 7.496094 0 4.136719 3.355468 7.492188 7.492187 7.492188 11.925781 0 21.628906 9.699218 21.628906 21.617187 0 4.136719 3.355469 7.492187 7.492188 7.492187 4.140625 0 7.496093-3.355468 7.496093-7.492187 0-11.917969 9.703126-21.617187 21.625-21.617187 4.140626 0 7.496094-3.355469 7.496094-7.492188 0-4.140625-3.355468-7.496094-7.496094-7.496094zm-29.121093 14.441406c-1.992188-2.613281-4.332031-4.953124-6.945313-6.945312 2.613282-1.996094 4.953125-4.332031 6.945313-6.945312 1.996093 2.613281 4.332031 4.949218 6.949219 6.945312-2.617188 1.992188-4.953126 4.332031-6.949219 6.945312zm0 0" data-original="#000000" class="active-path" data-old_color="#000000" fill="#FFFFFF"/></g> </svg>
