<?xml version="1.0"?>
<svg xmlns="http://www.w3.org/2000/svg" id="Layer_1" height="512px" viewBox="0 0 64 64" width="512px" data-name="Layer 1"><g><path d="m61 29.5c0-3.6-4.84-6.66-13.28-8.45a17 17 0 0 0 -31.44 0c-8.44 1.79-13.28 4.85-13.28 8.45 0 2.34 2 4.3 5.1 5.84-1.1 3.35-.21 6.6 2.18 7.66 2.73 1.08 6.54-1.8 7.35-4.71a84.21 84.21 0 0 0 28.69 0 10.31 10.31 0 0 0 3.17 4.09 4.3 4.3 0 0 0 4.23.61c2.38-1 3.28-4.26 2.18-7.61 3.15-1.58 5.1-3.54 5.1-5.88zm-29-17a15 15 0 0 1 15 14.31 43.24 43.24 0 0 1 -30 0 15 15 0 0 1 15-14.31zm-20.94 28.61c-1.33-.57-1.77-2.72-1.11-5a40.08 40.08 0 0 0 5.72 1.7c-1.22 2.46-3.02 3.78-4.61 3.3zm41.88 0a2.62 2.62 0 0 1 -2.35-.43 6.66 6.66 0 0 1 -2.27-2.84 40.23 40.23 0 0 0 5.73-1.7c.66 2.24.22 4.4-1.11 4.97zm-20.94-3.61c-15.91 0-27-4.22-27-8 0-2.32 4.09-4.71 10.56-6.25a17 17 0 0 0 -.56 4.25 1 1 0 0 0 .65.94 46.4 46.4 0 0 0 16.35 3 46.4 46.4 0 0 0 16.35-3 1 1 0 0 0 .65-.94 16.88 16.88 0 0 0 -.56-4.24c6.47 1.53 10.56 3.92 10.56 6.24 0 3.78-11.09 8-27 8z" data-original="#000000" class="active-path" fill="#000000"/><path d="m11 27.5a2.5 2.5 0 1 0 2.5 2.5 2.5 2.5 0 0 0 -2.5-2.5zm0 3a.5.5 0 1 1 .5-.5.5.5 0 0 1 -.5.5z" data-original="#000000" class="active-path" fill="#000000"/><path d="m53 27.5a2.5 2.5 0 1 0 2.5 2.5 2.5 2.5 0 0 0 -2.5-2.5zm0 3a.5.5 0 1 1 .5-.5.5.5 0 0 1 -.5.5z" data-original="#000000" class="active-path" fill="#000000"/><path d="m32 32a2.5 2.5 0 1 0 2.5 2.5 2.5 2.5 0 0 0 -2.5-2.5zm0 3a.5.5 0 1 1 .5-.5.5.5 0 0 1 -.5.5z" data-original="#000000" class="active-path" fill="#000000"/><path d="m32 42.5a1 1 0 0 0 -1 1v4a1 1 0 0 0 2 0v-4a1 1 0 0 0 -1-1z" data-original="#000000" class="active-path" fill="#000000"/><path d="m32 50.5a1 1 0 0 0 -1 1v1a1 1 0 0 0 2 0v-1a1 1 0 0 0 -1-1z" data-original="#000000" class="active-path" fill="#000000"/><path d="m36 46.5a1 1 0 0 0 -1 1v4a1 1 0 0 0 2 0v-4a1 1 0 0 0 -1-1z" data-original="#000000" class="active-path" fill="#000000"/><path d="m36 41.5a1 1 0 0 0 -1 1v1a1 1 0 0 0 2 0v-1a1 1 0 0 0 -1-1z" data-original="#000000" class="active-path" fill="#000000"/><path d="m28 46.5a1 1 0 0 0 -1 1v4a1 1 0 0 0 2 0v-4a1 1 0 0 0 -1-1z" data-original="#000000" class="active-path" fill="#000000"/><path d="m28 41.5a1 1 0 0 0 -1 1v1a1 1 0 0 0 2 0v-1a1 1 0 0 0 -1-1z" data-original="#000000" class="active-path" fill="#000000"/><path d="m32 26.5a5 5 0 1 0 -5-5 5 5 0 0 0 5 5zm0-8a3 3 0 1 1 -3 3 3 3 0 0 1 3-3z" data-original="#000000" class="active-path" fill="#000000"/></g> </svg>
