<svg height="464pt" viewBox="0 0 464 464" width="464pt" xmlns="http://www.w3.org/2000/svg"><path d="m464 224-128.878906 111.121094-103.121094-103.121094-103.121094 103.121094-128.878906-111.121094 232-224zm0 0" fill="#2a97f3"/><path d="m40 32h384v424h-384zm0 0" fill="#fefddc"/><path d="m464 224v240l-128.878906-128.878906zm0 0" fill="#3aadfb"/><path d="m335.121094 335.121094-103.121094-103.121094-232 232h464zm0 0" fill="#2a97f3"/><path d="m128.878906 335.121094-128.878906 128.878906v-240zm0 0" fill="#3aadfb"/><g fill="#faca39"><path d="m208 312c0 4.417969-3.582031 8-8 8s-8-3.582031-8-8 3.582031-8 8-8 8 3.582031 8 8zm0 0"/><path d="m272 312c0 4.417969-3.582031 8-8 8s-8-3.582031-8-8 3.582031-8 8-8 8 3.582031 8 8zm0 0"/><path d="m232 368c-4.519531.007812-8.980469-1.039062-13.023438-3.054688l-6.550781-3.28125 7.148438-14.3125 6.554687 3.28125c3.699219 1.832032 8.042969 1.832032 11.742188 0l6.554687-3.28125 7.148438 14.3125-6.550781 3.28125c-4.046876 2.011719-8.503907 3.058594-13.023438 3.054688zm0 0"/><path d="m200 125.246094v66.753906l32-24 32 24v-66.753906c-21.179688 3.601562-42.820312 3.601562-64 0zm0 0"/></g><path d="m306.457031 113.503906 27.445313 59.449219 18.976562-35.199219 39.121094 8.34375-28.457031-61.601562c-18.023438 11.527344-37.148438 21.246094-57.085938 29.007812zm0 0" fill="#ee7cbd"/><path d="m100.457031 84.464844-28.457031 61.632812 39.121094-8.363281 18.976562 35.203125 27.445313-59.449219c-19.9375-7.769531-39.0625-17.488281-57.085938-29.023437zm0 0" fill="#7058e5"/><path d="m232 135.953125c-62.640625 0-125.273438-29.9375-197.121094-89.808594l10.242188-12.289062c137.976562 114.945312 235.78125 114.945312 373.757812 0l10.242188 12.289062c-71.847656 59.871094-134.480469 89.808594-197.121094 89.808594zm0 0" fill="#5e4029"/></svg>