<svg height="512" viewBox="0 0 58 58" width="512" xmlns="http://www.w3.org/2000/svg"><g id="015---Birthday-Cake" fill="none"><path id="Shape" d="m13 12c-.5522847 0-1-.4477153-1-1v-4c0-.55228475.4477153-1 1-1s1 .44771525 1 1v4c0 .5522847-.4477153 1-1 1z" fill="#95a5a5"/><path id="Shape" d="m12 11h2c.5522847 0 1 .4477153 1 1v10h-4v-10c0-.5522847.4477153-1 1-1z" fill="#3b97d3"/><path id="Shape" d="m13.09.711c-.0491147-.15415811-.171021-.27422531-.3259078-.32099114-.1548869-.04676584-.3228705-.01422667-.4490922.08699114-1.3109564.89228548-2.1588112 2.31990462-2.315 3.898 0 3.488 6 3.486 6 0 0-2.353-2.411-1.894-2.91-3.664z" fill="#f3d55b"/><path id="Shape" d="m45 12c-.5522847 0-1-.4477153-1-1v-4c0-.55228475.4477153-1 1-1s1 .44771525 1 1v4c0 .5522847-.4477153 1-1 1z" fill="#95a5a5"/><path id="Shape" d="m44 11h2c.5522847 0 1 .4477153 1 1v10h-4v-10c0-.5522847.4477153-1 1-1z" fill="#3b97d3"/><path id="Shape" d="m45.09.711c-.0491147-.15415811-.171021-.27422531-.3259078-.32099114-.1548869-.04676584-.3228705-.01422667-.4490922.08699114-1.3109564.89228548-2.1588112 2.31990462-2.315 3.898 0 3.488 6 3.486 6 0 0-2.353-2.411-1.894-2.91-3.664z" fill="#f3d55b"/><path id="Shape" d="m54 37v15h-50v-15c6.25 0 6.25 2.727 12.5 2.727s6.25-2.727 12.49-2.727c6.26 0 6.26 2.727 12.51 2.727s6.25-2.727 12.5-2.727z" fill="#f9eab0"/><path id="Shape" d="m50 23v13h-42v-13c5.25 0 5.25 2.889 10.5 2.889s5.25-2.889 10.49-2.889c5.26 0 5.26 2.889 10.51 2.889s5.25-2.889 10.5-2.889z" fill="#f9eab0"/><path id="Shape" d="m4 50h50c1.1045695 0 2 .8954305 2 2v4h-54v-4c0-1.1045695.8954305-2 2-2z" fill="#f29c1f"/><path id="Shape" d="m54 36v3c-6.25 0-6.25 2-12.5 2s-6.25-2-12.51-2c-6.24 0-6.24 2-12.49 2s-6.25-2-12.5-2v-3c.0032948-1.1032019.89679813-1.9967052 2-2h46c1.1032019.0032948 1.9967052.8967981 2 2z" fill="#fb7b76"/><path id="Shape" d="m50 22v3c-5.25 0-5.25 2-10.5 2s-5.25-2-10.51-2c-5.24 0-5.24 2-10.49 2s-5.25-2-10.5-2v-3c.0032948-1.1032019.89679813-1.9967052 2-2h38c1.1032019.0032948 1.9967052.8967981 2 2z" fill="#fb7b76"/><path id="Shape" d="m37 16v4h-16v-4c0-.5522847.4477153-1 1-1h3c.5522847 0 1-.4477153 1-1v-6c0-.55228475-.4477153-1-1-1h-1c-.5522847 0-1-.44771525-1-1v-2c0-.55228475.4477153-1 1-1 1.192 0 2.143.1 3.12-.88.3668179-.36609531.6327561-.82080836.772-1.32.1066199-.4581557.5087873-.78679098.979-.8h2.129c.5522847 0 1 .44771525 1 1v13c0 .5522847.4477153 1 1 1h3c.5522847 0 1 .4477153 1 1z" fill="#e64c3c"/><rect id="Rectangle-path" fill="#f0c419" height="4" rx="1" width="58" y="54"/></g></svg>